# xmcd
#
# Track frame offsets:
#	150
#	9425
#	19595
#	29328
#	39858
#	54173
#	67720
#	75650
#	87103
#	97265
#	116615
#	129460
#	142538
#	154620
#	166598
#	177505
#	189040
#	200250
#	211193
#
# Disc length: 3081 seconds
# Revision: 3
# Processed by: cddbd v1.5.2PL0 Copyright (c) Steve Scherf et al.
# Submitted via: dBpowerAMP V12.0
#
DISCID=d50c0713
DTITLE=Various Artist - The Minnesota Album
DYEAR=1992
DGENRE=Bluegrass
TTITLE0=Natural 'Grass - Cold Wind
TTITLE1=Dick Kimmel and Leo Rosenstein - Honey, I'm Ramblin' Away
TTITLE2=Stoney Lonesome - Mason Harris
TTITLE3=Urban Renewal - Undecided
TTITLE4=Curtis and Loretta - What is the Name of This Town?
TTITLE5=Backroads Junction - Shady Grove
TTITLE6=The Other Side - Jesus, I'll Never Forget
TTITLE7=Mary Henderson and The Mill City Rambers - That Old Train Blues
TTITLE8="A#" Bluegrass - Beaumont Rag
TTITLE9=Cousin Dad - Alone and Sorry in Wisconsin
TTITLE10=Middle Spunk Creek Boys - Coal Tattoo
TTITLE11=Bob Bovee and Gail Heil - A Message from Home Sweet Home
TTITLE12=Bill and Laurie Ness - Happy Little Home in Arkansas
TTITLE13=The Blue Drifters - Lost and I'll Never Find the Way
TTITLE14=Cagley, Black, Shaefer and Njoes - Granny Will Your Dog Bite?
TTITLE15=The Bluegills - Things Close to Me
TTITLE16=Whitewater - Don't Cry Blue
TTITLE17=Pop Wagner - Geraldine
TTITLE18=The Bone Tones - Lake Arthur Stomp
EXTD=
EXTT0=
EXTT1=
EXTT2=
EXTT3=
EXTT4=
EXTT5=
EXTT6=
EXTT7=
EXTT8=
EXTT9=
EXTT10=
EXTT11=
EXTT12=
EXTT13=
EXTT14=
EXTT15=
EXTT16=
EXTT17=
EXTT18=
PLAYORDER=
